<svg viewBox="0 0 64 64" xml:space="preserve" xmlns="http://www.w3.org/2000/svg" enable-background="new 0 0 64 64"><path d="M38 62H12a4 4 0 0 1-4-4V6a4 4 0 0 1 4-4h26a4 4 0 0 1 4 4v52a4 4 0 0 1-4 4z" fill="#b7c5fc" class="fill-caeae9 fill-b7c5fc"></path><path d="M42 49h20V25H48V14a6 6 0 0 0-6 6v29zM8 28a3 3 0 1 1-6 0 3 3 0 0 1 6 0z" fill="#f2daae" class="fill-f2daae fill-e6c17c"></path><path d="M8 34a3 3 0 1 1-6 0 3 3 0 0 1 6 0z" fill="#f2daae" class="fill-f2daae fill-e6c17c"></path><path d="M8 40a3 3 0 1 1-6 0 3 3 0 0 1 6 0z" fill="#f2daae" class="fill-f2daae fill-e6c17c"></path><path d="M8 46a3 3 0 1 1-6 0 3 3 0 0 1 6 0z" fill="#f2daae" class="fill-f2daae fill-e6c17c"></path><path d="M42 8H8V6a4 4 0 0 1 4-4h26a4 4 0 0 1 4 4v2zM8 56h34v2a4 4 0 0 1-4 4H12a4 4 0 0 1-4-4v-2z" fill="#4366fb" class="fill-62c4c3 fill-4366fb"></path><path d="M12 15h10v8H12zM28 28h10v8H28z" fill="#ffffff" class="fill-efbc2e fill-ffffff"></path><path d="M25 13.999h14v2H25zM25 17.999h14v2H25zM25 21.999h10v2H25z" fill="#394e85" class="fill-3a4249 fill-394e85"></path><path d="M12 41h10v8H12z" fill="#ffffff" class="fill-efbc2e fill-ffffff"></path><path d="M25 39.999h14v2H25zM25 43.999h14v2H25zM25 47.999h2v2h-2zM11 26.999h14v2H11zM11 30.999h14v2H11zM11 34.999h14v2H11zM37 21.999h2v2h-2zM29 47.999h2v2h-2zM33 47.999h2v2h-2zM37 47.999h2v2h-2z" fill="#394e85" class="fill-3a4249 fill-394e85"></path></svg>